<?xml version="1.0" encoding="UTF-8"?>
<!DOCTYPE svg PUBLIC "-//W3C//DTD SVG 1.1//EN" "http://www.w3.org/Graphics/SVG/1.1/DTD/svg11.dtd">
<svg xmlns="http://www.w3.org/2000/svg" xml:space="preserve" style="shape-rendering:geometricPrecision; text-rendering:geometricPrecision; image-rendering:optimizeQuality; fill-rule:evenodd; clip-rule:evenodd"
viewBox="3500 5000 15500 15500">
 <defs>
  <style type="text/css">
   <![CDATA[
    .str1 {stroke:#00CCFF;stroke-width:200;stroke-miterlimit:22.9256}
    .str0 {stroke:#FFFFCC;stroke-width:100;stroke-miterlimit:22.9256}
    .fil1 {fill:#00CCFF}
    .fil0 {fill:#FFFFCC}
   ]]>
  </style>
 </defs>
 <g id="Layer_x0020_1">
  <g id="_2334485214144">
   <circle class="fil0 str0" cx="11159.06" cy="12843.93" r="7200.9"/>
   <circle class="fil0 str1" cx="11159.06" cy="12843.93" r="6674.91"/>
   <path class="fil1" d="M8601.24 16992.78l0 -3652.96 -3326.52 96.78 -296.33 -1100.07 3622.85 0 0 -3641.45 3677.57 0c739.76,0 1301.82,75.33 1686.19,224.05 384.37,148.73 691.48,411.41 921.32,788.05 229.85,376.64 343.81,793.85 343.81,1249.68 0,589.1 -191.22,1085.5 -571.72,1489.18 -380.51,403.68 -967.68,658.64 -1763.46,768.74 291.66,139.06 511.85,278.13 662.5,413.34 320.63,293.58 623.88,662.5 907.81,1104.81l1435.1 2259.85 -1371.36 0 -1097.09 -1726.76c-318.7,-500.25 -583.31,-880.76 -789.98,-1145.37 -208.61,-264.62 -394.03,-448.11 -558.21,-554.34 -162.24,-104.3 -330.28,-177.7 -500.25,-220.19 -123.62,-25.11 -326.43,-38.63 -610.36,-38.63l-1270.92 0 0 3685.29 -1100.95 0zm1100.95 -4635.59l2356.42 0c502.19,0 892.36,-52.15 1174.35,-156.45 282,-102.37 496.4,-268.48 641.26,-498.32 146.79,-227.92 220.19,-475.15 220.19,-743.63 0,-392.09 -141,-716.59 -424.93,-969.61 -283.93,-253.03 -732.04,-378.57 -1344.32,-378.57l-2622.97 0 0 2746.58z"/>
  </g>
 </g>
</svg>